<svg width="303" height="107" xmlns="http://www.w3.org/2000/svg" class="iconLeft">
 <!---->

 <!---->
 <!---->
 <!---->
 <!---->
 <g>
  <title>Layer 1</title>
  <g transform="matrix(6.55738 0 0 6.55738 100.224 -0.520001)" fill="black" id="959db908-3379-433e-b33e-5289e51cb8e6">
   <path id="svg_1" d="m69.4175,10.4725l-0.94,0.66l0,0q0.21,0.26 0.22,1.04l0,0l0,0q-0.07,6.13 0.05,6.6l0,0l0,0q0.12,0.48 0.7,0.76l0,0l1.11,-0.88l-0.07,-0.18l0,0q-0.52,0.35 -0.61,-0.3l0,0l0,0q-0.08,-0.65 -0.02,-3.46l0,0l3.12,-0.1l0.04,-0.84l-2.65,0.1l-0.51,0.46l-0.04,-2.71l0,0q-0.04,-0.9 -0.4,-1.15l0,0zm4.17,0l-0.94,0.66l0,0q0.21,0.26 0.22,1.04l0,0l0,0q-0.07,6.13 0.05,6.6l0,0l0,0q0.12,0.48 0.7,0.76l0,0l1.11,-0.88l-0.07,-0.18l0,0q-0.52,0.35 -0.61,-0.3l0,0l0,0q-0.08,-0.65 -0.06,-6.55l0,0l0,0q-0.04,-0.9 -0.4,-1.15l0,0zm4.36,2.93l0,0l0,0q-1.02,0.02 -1.87,0.69l0,0l0,0q-0.84,0.67 -0.42,1.51l0,0l1.12,-0.67l0,0q-0.22,-1.17 1.2,-1.04l0,0l0,0q1.43,0.12 1.24,1.86l0,0l0,0q-1.1,-0.5 -1.98,-0.28l0,0l0,0q-0.88,0.21 -1.62,1.1l0,0l0,0q-0.59,0.87 -0.37,1.47l0,0l0,0q0.21,0.61 0.7,1.05l0,0l0,0q0.48,0.44 1.08,0.48l0,0l0,0q0.59,0.05 1,-0.23l0,0l0,0q0.41,-0.28 1.21,-0.99l0,0l0,0q0.07,0.87 0.56,1.27l0,0l1.11,-0.96l-0.09,-0.16l0,0q-0.56,0.46 -0.63,-1.06l0,0l0.01,-2.44l0,0q-0.03,-0.91 -0.63,-1.26l0,0l0,0q-0.61,-0.35 -1.62,-0.34zm0.97,3.3l0,0l0.28,-0.37l0,1.61l0,0q-0.86,0.87 -1.49,0.82l0,0l0,0q-0.62,-0.05 -1.04,-0.42l0,0l0,0q-0.43,-0.36 -0.62,-0.84l0,0l0,0q-0.19,-0.47 0.08,-0.93l0,0l0,0q0.26,-0.45 1.05,-0.52l0,0l0,0q0.79,-0.08 1.74,0.65zm5.28,-2.72l0,0l0.16,0.12l0,0q0.5,-0.69 1.36,0.24l0,0l0,0q0.86,0.92 0.58,1.96l0,0l0,0q-0.28,1.04 -1.2,2.13l0,0l-2.42,-4.9l0,0q-0.25,-0.29 -0.64,0.04l0,0l-0.87,0.66l0.13,0.2l0,0q0.28,-0.46 0.87,0.58l0,0l2.25,4.54l0.27,0l0.61,-0.78l0,0q0.96,-1.14 1.66,-2.17l0,0l0,0q0.7,-1.03 0.21,-2.17l0,0l0,0q-0.48,-1.14 -1.37,-1.4l0,0l0,0q-0.88,-0.26 -1.6,0.95zm6.18,-0.67l0,0q-1.15,0.76 -1.62,1.32l0,0l0,0q-0.48,0.56 -0.67,1.12l0,0l0,0q-0.19,0.57 -0.07,1.43l0,0l0,0q0.13,0.85 1,1.64l0,0l0,0q0.87,0.79 1.39,0.79l0,0l0,0q0.52,0.01 1.63,-1.02l0,0l0,0q0.43,-0.39 0.82,-0.91l0,0l0,0q0.4,-0.51 0.51,-1.08l0,0l0,0q0.11,-0.57 -0.06,-1.24l0,0l0,0q-0.18,-0.67 -0.98,-1.46l0,0l0,0q-0.81,-0.79 -1.95,-0.59l0,0zm-0.36,0.81l0,0l0,0q0.78,-0.18 1.72,0.98l0,0l0,0q0.94,1.17 0.74,1.99l0,0l0,0q-0.2,0.83 -0.86,1.33l0,0l0,0q-0.65,0.49 -1.39,-0.11l0,0l0,0q-0.74,-0.61 -1.18,-1.3l0,0l0,0q-0.43,-0.69 -0.13,-1.7l0,0l0,0q0.31,-1.02 1.1,-1.19zm6.7,-0.61l0,0l0,0q-0.38,0.15 -0.71,0.37l0,0l0,0q-0.34,0.21 -0.69,0.5l0,0l0,0q-2.29,1.86 -0.69,4.14l0,0l0,0q0.45,0.55 0.92,0.79l0,0l0,0q0.46,0.24 1.11,0.25l0,0l0,0q0.64,0 1.27,-0.65l0,0l0,0q0.63,-0.65 1.07,-1.3l0,0l-0.22,-0.2l0,0q-0.17,0.23 -0.44,0.51l0,0l0,0q-0.26,0.29 -0.66,0.46l0,0l0,0q-0.4,0.18 -0.89,0.11l0,0l0,0q-0.5,-0.06 -1,-0.53l0,0l0,0q-0.49,-0.48 -0.8,-1.39l0,0l0,0q-0.31,-0.91 0.04,-1.44l0,0l0,0q0.35,-0.52 1.02,-0.7l0,0l0,0q0.66,-0.17 1.11,0.06l0,0l0,0q0.45,0.23 0.86,1l0,0l0.8,-0.67l0,0q-0.13,-0.54 -0.51,-0.91l0,0l0,0q-0.37,-0.36 -0.79,-0.46l0,0l0,0q-0.41,-0.1 -0.8,0.06z"/>
  </g>
  <g fill="black" transform="matrix(1.08681 0 0 1.08681 -13.2553 -0.238943)" id="16ce3202-f7cb-4755-b3b3-0ad6052f3da9">
   <g id="svg_2" clip-rule="evenodd">
    <path id="svg_3" d="m113.75229,10.12999l17.018,88.223l-5.872,-59.049l29.021,-1.892l-0.054,-9.883l11.453,-26.989l-10.927,17.977l-40.639,-8.387z"/>
    <path id="svg_4" d="m160.15829,54.08799l5.16,-53.541l-8.74,39.716l-19.612,1.045l1.57,20.462l-7.766,36.583l12.057,-39.899l17.331,-4.366z"/>
    <path id="svg_5" d="m163.56929,66.72199l0.549,-10.453l-15.979,3.755l-0.032,11.797l-17.337,26.532l21.68,-27.616l11.119,-4.015zm2.911,-4.788l14.841,-4.731l1.509,-12.532l-15.899,2.095l-0.451,15.168zm6.359,-17.892l10.988,-1.417l1.581,-10.278l-8.079,-0.373l-12.011,-31.434l8.43,30.967l-0.909,12.535z"/>
    <path id="svg_6" d="m188.18229,30.83399l1.256,-9.506l-9.544,-2.694l-14.576,-18.094l14.483,22.437l-0.422,7l8.803,0.857z"/>
   </g>
  </g>
 </g>
</svg>