<svg data-v-423bf9ae="" xmlns="http://www.w3.org/2000/svg" viewBox="0 0 303 107" class="iconLeft"><!----><!----><!----><g data-v-423bf9ae="" id="e14f05ff-d277-43f0-8e9b-75297710a95a" fill="white" transform="matrix(6.557377322561851,0,0,6.557377322561851,100.22360218626851,-0.5200004988136939)"><path d="M1.25 3.61L0.31 4.27L0.31 4.27Q0.52 4.53 0.53 5.31L0.53 5.31L0.53 5.31Q0.46 11.44 0.58 11.91L0.58 11.91L0.58 11.91Q0.70 12.39 1.28 12.67L1.28 12.67L2.39 11.79L2.32 11.61L2.32 11.61Q1.80 11.96 1.71 11.31L1.71 11.31L1.71 11.31Q1.63 10.66 1.69 7.85L1.69 7.85L4.81 7.75L4.85 6.91L2.20 7.01L1.69 7.47L1.65 4.76L1.65 4.76Q1.61 3.86 1.25 3.61L1.25 3.61ZM5.42 3.61L4.48 4.27L4.48 4.27Q4.69 4.53 4.70 5.31L4.70 5.31L4.70 5.31Q4.63 11.44 4.75 11.91L4.75 11.91L4.75 11.91Q4.87 12.39 5.45 12.67L5.45 12.67L6.56 11.79L6.49 11.61L6.49 11.61Q5.97 11.96 5.88 11.31L5.88 11.31L5.88 11.31Q5.80 10.66 5.82 4.76L5.82 4.76L5.82 4.76Q5.78 3.86 5.42 3.61L5.42 3.61ZM9.78 6.54L9.78 6.54L9.78 6.54Q8.76 6.56 7.91 7.23L7.91 7.23L7.91 7.23Q7.07 7.90 7.49 8.74L7.49 8.74L8.61 8.07L8.61 8.07Q8.39 6.90 9.81 7.03L9.81 7.03L9.81 7.03Q11.24 7.15 11.05 8.89L11.05 8.89L11.05 8.89Q9.95 8.39 9.07 8.61L9.07 8.61L9.07 8.61Q8.19 8.82 7.45 9.71L7.45 9.71L7.45 9.71Q6.86 10.58 7.08 11.18L7.08 11.18L7.08 11.18Q7.29 11.79 7.78 12.23L7.78 12.23L7.78 12.23Q8.26 12.67 8.86 12.71L8.86 12.71L8.86 12.71Q9.45 12.76 9.86 12.48L9.86 12.48L9.86 12.48Q10.27 12.20 11.07 11.49L11.07 11.49L11.07 11.49Q11.14 12.36 11.63 12.76L11.63 12.76L12.74 11.80L12.65 11.64L12.65 11.64Q12.09 12.10 12.02 10.58L12.02 10.58L12.03 8.14L12.03 8.14Q12.00 7.23 11.40 6.88L11.40 6.88L11.40 6.88Q10.79 6.53 9.78 6.54ZM10.75 9.84L10.75 9.84L11.03 9.47L11.03 11.08L11.03 11.08Q10.17 11.95 9.54 11.90L9.54 11.90L9.54 11.90Q8.92 11.85 8.50 11.48L8.50 11.48L8.50 11.48Q8.07 11.12 7.88 10.64L7.88 10.64L7.88 10.64Q7.69 10.17 7.96 9.71L7.96 9.71L7.96 9.71Q8.22 9.26 9.01 9.19L9.01 9.19L9.01 9.19Q9.80 9.11 10.75 9.84ZM16.03 7.12L16.03 7.12L16.19 7.24L16.19 7.24Q16.69 6.55 17.55 7.48L17.55 7.48L17.55 7.48Q18.41 8.40 18.13 9.44L18.13 9.44L18.13 9.44Q17.85 10.48 16.93 11.57L16.93 11.57L14.51 6.67L14.51 6.67Q14.26 6.38 13.87 6.71L13.87 6.71L13.00 7.37L13.13 7.57L13.13 7.57Q13.41 7.11 14 8.15L14 8.15L16.25 12.69L16.52 12.69L17.13 11.91L17.13 11.91Q18.09 10.77 18.79 9.74L18.79 9.74L18.79 9.74Q19.49 8.71 19.00 7.57L19.00 7.57L19.00 7.57Q18.52 6.43 17.63 6.17L17.63 6.17L17.63 6.17Q16.75 5.91 16.03 7.12ZM22.21 6.45L22.21 6.45Q21.06 7.21 20.59 7.77L20.59 7.77L20.59 7.77Q20.11 8.33 19.92 8.89L19.92 8.89L19.92 8.89Q19.73 9.46 19.85 10.32L19.85 10.32L19.85 10.32Q19.98 11.17 20.85 11.96L20.85 11.96L20.85 11.96Q21.72 12.75 22.24 12.75L22.24 12.75L22.24 12.75Q22.76 12.76 23.87 11.73L23.87 11.73L23.87 11.73Q24.30 11.34 24.69 10.82L24.69 10.82L24.69 10.82Q25.09 10.31 25.20 9.74L25.20 9.74L25.20 9.74Q25.31 9.17 25.14 8.50L25.14 8.50L25.14 8.50Q24.96 7.83 24.16 7.04L24.16 7.04L24.16 7.04Q23.35 6.25 22.21 6.45L22.21 6.45ZM21.85 7.26L21.85 7.26L21.85 7.26Q22.63 7.08 23.57 8.24L23.57 8.24L23.57 8.24Q24.51 9.41 24.31 10.23L24.31 10.23L24.31 10.23Q24.11 11.06 23.45 11.56L23.45 11.56L23.45 11.56Q22.80 12.05 22.06 11.45L22.06 11.45L22.06 11.45Q21.32 10.84 20.88 10.15L20.88 10.15L20.88 10.15Q20.45 9.46 20.75 8.45L20.75 8.45L20.75 8.45Q21.06 7.43 21.85 7.26ZM28.55 6.65L28.55 6.65L28.55 6.65Q28.17 6.80 27.84 7.02L27.84 7.02L27.84 7.02Q27.50 7.23 27.15 7.52L27.15 7.52L27.15 7.52Q24.86 9.38 26.46 11.66L26.46 11.66L26.46 11.66Q26.91 12.21 27.38 12.45L27.38 12.45L27.38 12.45Q27.84 12.69 28.49 12.70L28.49 12.70L28.49 12.70Q29.13 12.70 29.76 12.05L29.76 12.05L29.76 12.05Q30.39 11.40 30.83 10.75L30.83 10.75L30.61 10.55L30.61 10.55Q30.44 10.78 30.17 11.06L30.17 11.06L30.17 11.06Q29.91 11.35 29.51 11.52L29.51 11.52L29.51 11.52Q29.11 11.70 28.62 11.63L28.62 11.63L28.62 11.63Q28.12 11.57 27.62 11.10L27.62 11.10L27.62 11.10Q27.13 10.62 26.82 9.71L26.82 9.71L26.82 9.71Q26.51 8.80 26.86 8.27L26.86 8.27L26.86 8.27Q27.21 7.75 27.88 7.57L27.88 7.57L27.88 7.57Q28.54 7.40 28.99 7.63L28.99 7.63L28.99 7.63Q29.44 7.86 29.85 8.63L29.85 8.63L30.65 7.96L30.65 7.96Q30.52 7.42 30.14 7.05L30.14 7.05L30.14 7.05Q29.77 6.69 29.35 6.59L29.35 6.59L29.35 6.59Q28.94 6.49 28.55 6.65Z"></path></g><!----><g data-v-423bf9ae="" id="2f0b3aa4-6581-4120-b942-7316d4d399c6" transform="matrix(1.0868111504448785,0,0,1.0868111504448785,-13.255261890115804,-0.23894260335429607)" stroke="none" fill="white"><g clip-rule="evenodd"><path d="M12.983 10.59l17.018 88.223-5.872-59.049 29.021-1.892-.054-9.883L64.549 1 53.622 18.977z"></path><path d="M59.389 54.548l5.16-53.541-8.74 39.716-19.612 1.045 1.57 20.462-7.766 36.583 12.057-39.899z"></path><path d="M62.8 67.182l.549-10.453-15.979 3.755-.032 11.797-17.337 26.532 21.68-27.616zM65.711 62.394l14.841-4.731 1.509-12.532-15.899 2.095zM72.07 44.502l10.988-1.417 1.581-10.278-8.079-.373L64.549 1l8.43 30.967z"></path><path d="M87.413 31.294l1.256-9.506-9.544-2.694L64.549 1l14.483 22.437-.422 7z"></path></g></g><!----></svg>